<?xml version="1.0" standalone="no"?>
<!DOCTYPE svg PUBLIC "-//W3C//DTD SVG 20010904//EN"
 "http://www.w3.org/TR/2001/REC-SVG-20010904/DTD/svg10.dtd">
<svg version="1.0" xmlns="http://www.w3.org/2000/svg"
 width="1280.000000pt" height="1280.000000pt" viewBox="0 0 1280.000000 1280.000000"
 preserveAspectRatio="xMidYMid meet">
<metadata>
Created by potrace 1.15, written by Peter Selinger 2001-2017
</metadata>
<g transform="translate(0.000000,1280.000000) scale(0.100000,-0.100000)"
fill="#000000" stroke="none">
<path d="M5331 8894 c0 -11 6 -41 12 -69 l12 -50 255 -31 c140 -18 291 -38
335 -46 l80 -13 7 -50 c37 -288 32 -3994 -6 -4032 -5 -5 -378 -59 -540 -77
-75 -8 -132 -20 -136 -27 -9 -14 -23 -110 -17 -116 3 -2 157 2 343 8 334 12
1541 6 1756 -7 l96 -7 -15 64 c-9 35 -17 65 -19 67 -1 2 -100 15 -221 28 -206
23 -441 58 -450 67 -25 26 -44 2732 -24 3537 7 256 15 483 19 505 6 35 11 40
37 43 17 2 167 22 334 45 l305 43 13 49 c20 80 18 88 -19 81 -18 -3 -243 -10
-501 -16 -449 -11 -1518 0 -1619 17 -33 5 -38 3 -37 -13z"/>
</g>
</svg>
